<?xml version="1.0" standalone="no"?>
<svg version="1.1" xmlns="http://www.w3.org/2000/svg" xmlns:xlink="http://www.w3.org/1999/xlink" x="0px" y="0px" viewBox="0 0 5500 5500" style="enable-background:new 0 0 5500 5500;" xml:space="preserve"> <style type="text/css"> .background{fill:#DEDEDE;} .fill{fill:#000000;} </style> <g id="full-star"> <path class="background" d="M3500.3,2194.5c-59.2,0-122-45.4-140.2-101.9L2780.8,311.2c-18.2-56.5-47.5-56.5-65.9,0l-578.6,1781.4 c-18.4,56.5-81.2,101.9-140.8,101.9H122.8c-59.2,0-68.6,28.3-20.5,62.8l1515.1,1101.3c48.1,34.6,72.2,108.2,53.8,164.7 l-579.1,1781.3c-18.3,56,5.8,73.8,53.8,38.7l1515.1-1100.7c48.1-35,125.5-35,173.7,0l1515.5,1101.3 c47.7,34.5,71.6,17.3,53.4-39.2L3825,3523.3c-18.2-56.5,5.2-130.2,53.4-164.7L5394,2257.3c47.7-34.6,38.7-62.8-20.4-62.8 L3500.3,2194.5L3500.3,2194.5z"/> </g> <g id="star-fill"> <path class="fill" d="M3500.3,2194.5c-59.2,0-122-45.4-140.2-101.9L2780.8,311.2c-18.2-56.5-47.5-56.5-65.9,0l-578.6,1781.4 c-18.4,56.5-81.2,101.9-140.8,101.9H122.8c-59.2,0-68.6,28.3-20.5,62.8l1515.1,1101.3c48.1,34.6,72.2,108.2,53.8,164.7 l-579.1,1781.3c-18.3,56,5.8,73.8,53.8,38.7l1515.1-1100.7c48.1-35,125.5-35,173.7,0l1515.5,1101.3 c47.7,34.5,71.6,17.3,53.4-39.2L3825,3523.3c-18.2-56.5,5.2-130.2,53.4-164.7L5394,2257.3c47.7-34.6,38.7-62.8-20.4-62.8 L3500.3,2194.5L3500.3,2194.5z"/> </g> </svg>